<?xml version="1.0" standalone="no"?>
<!DOCTYPE svg PUBLIC "-//W3C//DTD SVG 20010904//EN"
 "http://www.w3.org/TR/2001/REC-SVG-20010904/DTD/svg10.dtd">
<svg version="1.0" xmlns="http://www.w3.org/2000/svg"
 width="900.000000pt" height="512.000000pt" viewBox="0 0 900.000000 512.000000"
 preserveAspectRatio="xMidYMid meet">

<g transform="translate(0.000000,512.000000) scale(0.100000,-0.100000)"
fill="#000000" stroke="none">
<path d="M3850 3643 c-19 -1 -87 -8 -150 -14 -248 -22 -598 -94 -689 -141 -24
-13 -57 -43 -75 -66 -28 -40 -31 -50 -31 -122 0 -71 3 -82 30 -122 17 -23 49
-53 70 -65 67 -38 106 -38 255 1 532 136 1233 138 1823 6 263 -60 469 -132
685 -242 85 -42 169 -80 187 -84 49 -9 134 19 174 58 92 90 93 225 2 314 -43
42 -256 150 -429 219 -329 129 -737 218 -1167 254 -102 8 -606 11 -685 4z"/>
<path d="M3835 2844 c-174 -15 -387 -51 -560 -96 -108 -28 -124 -35 -161 -72
-51 -50 -67 -101 -53 -164 13 -60 41 -96 92 -121 57 -28 87 -27 220 8 698 181
1542 84 2140 -245 66 -36 134 -68 152 -71 53 -9 102 5 141 39 47 42 64 77 64
138 0 91 -33 129 -187 215 -187 103 -473 214 -708 274 -123 31 -346 70 -490
85 -116 12 -543 19 -650 10z"/>
<path d="M4009 2096 c-2 -2 -55 -6 -117 -10 -218 -12 -626 -82 -672 -115 -37
-26 -70 -80 -70 -113 0 -66 52 -135 112 -147 21 -4 84 3 173 21 260 51 450 71
690 71 121 1 265 -5 320 -11 290 -36 545 -112 791 -237 183 -93 197 -98 245
-85 72 20 117 103 97 177 -16 58 -64 94 -240 182 -290 143 -511 205 -908 256
-53 7 -415 16 -421 11z"/>
</g>
</svg>
